<svg xmlns="http://www.w3.org/2000/svg" viewBox="0 0 1200 630" width="1200" height="630">

  <!-- Background -->
  <rect width="1200" height="630" fill="#0A0A0A"/>

  <!-- Blue top bar -->
  <rect width="1200" height="4" fill="#0066FF"/>

  <!-- Left blue accent bar -->
  <rect x="80" y="180" width="4" height="270" fill="#0066FF"/>

  <!-- Eyebrow -->
  <text x="108" y="215" font-family="Poppins, sans-serif" font-weight="700" font-size="13" fill="#0066FF" letter-spacing="3">BOUTIQUE DIGITAL PRESENCE AGENCY</text>

  <!-- O mark: scale to ~160px tall -->
  <g transform="translate(108, 245) scale(0.416) translate(-120, -1050)">
    <path fill="#FFFFFF" d="M414.51,1312.18c20.6,0,38.17-7.57,52.67-22.71,14.51-15.14,21.76-36.8,21.76-64.98,0-13.41-1.62-25.33-4.81-35.79-.33-1.03-.66-2.06-1-3.09-3.51-10.17-8.61-18.89-15.32-26.1-14.09-15.14-31.44-22.71-52.04-22.71s-38.48,7.47-52.36,22.39c-4.51,4.85-8.27,10.44-11.32,16.73,3.51,2.65,6.86,5.68,10.05,9.09,14.09,15.14,21.13,36.81,21.13,64.98,0,19.29-3.4,35.53-10.21,48.7,11.75,8.98,25.57,13.47,41.44,13.47Z"/>
    <path fill="#FFFFFF" d="M321.46,1383.46c-27.55-14.72-49.2-35.74-64.98-63.08-15.77-27.33-23.66-59.3-23.66-95.89s7.98-68.02,23.97-95.57c14.76-25.43,34.55-45.39,59.35-59.89-2.01-.05-4.02-.08-6.05-.08-34.49,0-65.61,7.36-93.36,22.08-27.76,14.73-49.63,35.86-65.61,63.4-15.99,27.55-23.97,59.41-23.97,95.57s7.89,68.55,23.66,95.89c15.77,27.34,37.43,48.37,64.98,63.08,27.54,14.73,58.56,22.08,93.05,22.08s65.7-7.35,93.68-22.08c2.14-1.12,4.23-2.3,6.3-3.5-32.22-.77-61.34-8.1-87.35-22.01Z"/>
  </g>

  <!-- Tagline -->
  <text x="108" y="445" font-family="Poppins, sans-serif" font-weight="400" font-size="22" fill="#666666">Not cheaper. Better.</text>

  <!-- URL bottom right -->
  <text x="1120" y="590" font-family="Poppins, sans-serif" font-weight="500" font-size="16" fill="#0066FF" text-anchor="end">origo.ooo</text>

  <!-- Decorative O outline — right side -->
  <circle cx="1050" cy="315" r="200" fill="none" stroke="#0066FF" stroke-width="1.5" opacity="0.12"/>
  <circle cx="1050" cy="315" r="150" fill="none" stroke="#0066FF" stroke-width="1" opacity="0.08"/>

</svg>
